# xmcd CD database file
#
# Track frame offsets:
#	150
#	22511
#	50523
#	85763
#	104163
#	120632
#	138917
#	169298
#	188247
#	192360
#	202936
#
# Disc length: 3010 seconds
#
# Revision: 0
# Processed by: cddbd v1.5.2PL0 Copyright (c) Steve Scherf et al.
# Submitted via: CDex 1.70beta2
#
DISCID=900bc00b
DTITLE=Eric Reed - Stand!
DYEAR=2009
DGENRE=Jazz
TTITLE0=Stand!
TTITLE1=Pursuit Of Peace
TTITLE2=Prayer
TTITLE3=Git'cha Shout On
TTITLE4=Gratitude
TTITLE5=You Are There
TTITLE6=New Morning
TTITLE7=Adoracao (Adoration)
TTITLE8=Like A Thief In The Night
TTITLE9=A Love Divine
TTITLE10=Everything That Has Breath
EXTD=YEAR: 2009
EXTT0=
EXTT1=
EXTT2=
EXTT3=
EXTT4=
EXTT5=
EXTT6=
EXTT7=
EXTT8=
EXTT9=
EXTT10=
PLAYORDER=
